<?xml version="1.0" encoding="UTF-8" standalone="no"?>
<!-- Created with Inkscape (http://www.inkscape.org/) -->

<svg
   width="167.96033mm"
   height="137.96078mm"
   viewBox="0 0 167.96033 137.96078"
   version="1.1"
   id="svg1"
   xml:space="preserve"
   xmlns:inkscape="http://www.inkscape.org/namespaces/inkscape"
   xmlns:sodipodi="http://sodipodi.sourceforge.net/DTD/sodipodi-0.dtd"
   xmlns="http://www.w3.org/2000/svg"
   xmlns:svg="http://www.w3.org/2000/svg"><sodipodi:namedview
     id="namedview1"
     pagecolor="#ffffff"
     bordercolor="#000000"
     borderopacity="0.25"
     inkscape:showpageshadow="2"
     inkscape:pageopacity="0.0"
     inkscape:pagecheckerboard="0"
     inkscape:deskcolor="#d1d1d1"
     inkscape:document-units="mm" /><defs
     id="defs1" /><g
     inkscape:label="Layer 1"
     inkscape:groupmode="layer"
     id="layer1"
     transform="translate(-13.999541,-66.420744)"><g
       id="g3"><path
         style="fill:#000000;fill-opacity:1;stroke-width:1.30374"
         d="m 189.6234,661.79886 c -3.18787,-2.06808 -34.34501,-32.42892 -69.23809,-67.46852 -60.903153,-61.15893 -63.524823,-63.99176 -65.512905,-70.78964 -2.63385,-9.00598 -2.616693,-14.93304 0.06658,-22.99843 1.921705,-5.77627 8.668225,-12.98726 66.816645,-71.41664 43.48475,-43.69486 66.38798,-65.79389 69.89407,-67.43989 10.41414,-4.8891 19.3785,-2.44385 30.46135,8.30912 14.78284,14.34282 17.45199,21.441 12.0085,31.93477 -1.38005,2.6604 -26.31434,28.59067 -55.40955,57.62284 l -52.90038,52.78575 53.66237,53.66111 c 29.51431,29.51359 54.42781,55.04136 55.36335,56.72836 2.47485,4.46274 2.16306,12.23586 -0.71346,17.78627 -2.49558,4.81538 -16.08817,18.81989 -22.22838,22.90201 -5.34307,3.55216 -15.43098,2.81964 -22.2701,-1.61711 z"
         id="path1"
         transform="scale(0.26458333)" /><path
         style="fill:#000000;fill-opacity:1;stroke-width:1.30374"
         d="m 283.8566,769.07177 c -7.82556,-6.16715 -9.92705,-16.00951 -6.09537,-28.54775 1.09567,-3.58528 4.5701,-15.31894 7.72097,-26.07479 7.43808,-25.39074 11.68251,-39.85748 15.58717,-53.12738 1.74069,-5.91572 4.71786,-16.036 6.61594,-22.48951 1.89807,-6.45351 5.09317,-17.30714 7.10021,-24.11918 3.96735,-13.46548 10.13773,-34.43761 26.21465,-89.09938 5.72769,-19.47426 12.45995,-42.44793 14.96056,-51.05261 2.50062,-8.60468 5.42363,-18.57829 6.49556,-22.16357 3.6416,-12.17995 11.15617,-37.78265 13.01033,-44.32715 1.01577,-3.58528 4.45365,-15.31893 7.63974,-26.07478 3.18609,-10.75586 8.26289,-28.063 11.28179,-38.46032 25.9156,-89.2555 24.54523,-85.39111 31.89079,-89.93091 4.23827,-2.6194 5.96149,-2.80021 22.94401,-2.40741 l 18.36158,0.42469 5.11799,5.49041 c 7.29995,7.83113 7.3662,12.56463 0.49793,35.57738 -7.58883,25.4271 -21.4119,72.0109 -23.40538,78.87624 -1.04106,3.58528 -6.53609,22.06579 -12.21119,41.06779 -8.91871,29.86269 -15.45931,51.95639 -26.24513,88.65429 -1.36987,4.66087 -6.30096,21.08798 -10.95798,36.5047 -8.8941,29.44322 -13.00958,43.39369 -18.3652,62.25356 -1.78169,6.27425 -4.39951,15.22116 -5.81738,19.88203 -3.44839,11.33562 -12.58454,42.285 -20.97483,71.0538 -12.89029,44.19849 -19.57244,66.49262 -21.00546,70.08199 -0.78858,1.97521 -3.43529,5.34863 -5.88157,7.49651 l -4.4478,3.90522 -17.88105,-0.0145 c -17.24022,-0.0139 -18.03408,-0.13506 -22.15088,-3.37941 z"
         id="path2"
         transform="scale(0.26458333)" /><path
         style="fill:#000000;fill-opacity:1;stroke-width:1.30374"
         d="m 532.67751,665.91303 c -1.73768,-0.32704 -8.28718,-5.72237 -14.55445,-11.98964 -10.11093,-10.11093 -11.49583,-12.06722 -12.28952,-17.35995 -1.83811,-12.25739 -3.32137,-10.40042 55.20245,-69.11083 l 54.25814,-54.43113 -54.26131,-54.43112 c -50.66499,-50.82355 -54.32069,-54.79648 -55.15735,-59.94369 -0.49283,-3.03191 -0.49093,-7.35707 0.004,-9.61146 1.11405,-5.07221 19.04536,-24.2622 25.02633,-26.78304 5.12631,-2.16061 14.1113,-2.19842 18.94376,-0.0797 1.97062,0.86398 32.39223,30.31833 67.60357,65.45411 46.03503,45.93623 64.89835,65.61082 67.14493,70.03266 2.32653,4.57923 3.12429,8.27113 3.12429,14.45882 0,15.97216 -0.19302,16.20763 -71.98233,87.8101 -71.2759,71.0904 -68.33763,68.75623 -83.06273,65.9849 z"
         id="path3"
         transform="scale(0.26458333)" /></g></g></svg>
